<svg width="41" height="41" viewBox="0 0 41 41" fill="none" xmlns="http://www.w3.org/2000/svg">
<path d="M1.57171 40.5H33.5717C33.6592 40.5 33.7459 40.4828 33.8268 40.4493C33.9077 40.4158 33.9812 40.3667 34.0431 40.3049C34.105 40.243 34.1541 40.1695 34.1877 40.0886C34.2212 40.0077 34.2384 39.921 34.2385 39.8335V33.8334H38.9049C38.9924 33.8334 39.0791 33.8162 39.16 33.7827C39.241 33.7492 39.3145 33.7001 39.3764 33.6382C39.4383 33.5763 39.4874 33.5028 39.521 33.4219C39.5545 33.341 39.5717 33.2543 39.5718 33.1668V26.4998C39.5718 26.1318 39.2733 25.8333 38.9049 25.8333H34.2385V19.833C34.2385 19.7455 34.2212 19.6588 34.1877 19.5779C34.1542 19.497 34.1051 19.4234 34.0432 19.3615C33.9813 19.2996 33.9077 19.2505 33.8268 19.217C33.7459 19.1835 33.6592 19.1662 33.5717 19.1662H32.3482C32.3946 18.9508 32.3943 18.7279 32.3473 18.5126C32.3003 18.2972 32.2077 18.0945 32.0756 17.918L29.0633 13.9024L30.4542 12.859C30.7585 12.6311 31.0017 12.3316 31.1621 11.987C31.3225 11.6424 31.3953 11.2634 31.3738 10.8839L31.307 9.68329C31.298 9.52297 31.3287 9.36291 31.3965 9.21734C31.4642 9.07177 31.5669 8.9452 31.6954 8.84889L33.0861 7.80582L33.6714 8.58584C33.7239 8.65588 33.7897 8.71489 33.865 8.75951C33.9403 8.80412 34.0236 8.83346 34.1103 8.84585C34.1414 8.85014 34.1728 8.85256 34.2046 8.85225C34.3489 8.85247 34.4893 8.80565 34.6046 8.71889L40.1052 4.59255C40.9883 3.93003 41.1675 2.67657 40.505 1.79311L40.1345 1.29872C39.4711 0.416436 38.2182 0.237916 37.3345 0.899494L31.8345 5.0256C31.54 5.24655 31.4802 5.66468 31.7012 5.95914L32.2863 6.73916L30.8956 7.78262C30.5912 8.01035 30.348 8.30986 30.1876 8.65444C30.0271 8.99901 29.9544 9.37794 29.976 9.75743L30.0426 10.958C30.0517 11.1183 30.0211 11.2784 29.9534 11.424C29.8856 11.5696 29.7829 11.6961 29.6544 11.7924L28.2638 12.8359L25.251 8.82022C25.0959 8.61018 24.8901 8.44285 24.6529 8.33383C24.4156 8.22481 24.1546 8.17766 23.8942 8.19677C23.6456 8.21486 23.4056 8.29549 23.1965 8.43116C22.9874 8.56683 22.816 8.75315 22.6982 8.9728L17.2203 19.1662H1.57178C1.48421 19.1662 1.39749 19.1835 1.31658 19.217C1.23566 19.2505 1.16214 19.2996 1.10021 19.3615C1.03828 19.4234 0.989162 19.4969 0.955651 19.5778C0.92214 19.6588 0.904897 19.7455 0.904907 19.833V26.4998C0.904897 26.5873 0.922137 26.674 0.955643 26.755C0.98915 26.8359 1.03827 26.9094 1.10019 26.9713C1.16211 27.0332 1.23562 27.0823 1.31652 27.1158C1.39743 27.1493 1.48414 27.1666 1.57171 27.1666H6.23813V32.5H1.57178C1.48421 32.5 1.39749 32.5172 1.31658 32.5507C1.23566 32.5842 1.16214 32.6333 1.10021 32.6952C1.03828 32.7572 0.989162 32.8307 0.955651 32.9116C0.92214 32.9925 0.904897 33.0792 0.904907 33.1668V39.8335C0.904907 40.2016 1.20335 40.5 1.57171 40.5ZM38.1347 1.96585C38.4289 1.7449 38.8467 1.80436 39.0679 2.0989L39.4385 2.59328C39.5444 2.73472 39.5898 2.91241 39.5648 3.08733C39.5398 3.26225 39.4464 3.4201 39.3051 3.52619L34.3377 7.25284L33.1674 5.6921L38.1347 1.96585ZM12.9051 33.8333H22.2383V39.1667H12.9051V33.8333ZM18.2383 27.1666H27.5716V32.5H18.2383V27.1666ZM32.9052 39.1667H23.5715V33.8333H32.9052V39.1667ZM38.2384 32.5H28.9048V27.1666H38.2385L38.2384 32.5ZM32.9052 25.8333H23.5715V21.951L30.3954 20.4995H32.9052V25.8333ZM23.8731 9.60454C23.8958 9.55782 23.9426 9.52797 23.9946 9.52641L24.0077 9.52578C24.0425 9.52636 24.0767 9.53521 24.1075 9.5516C24.1382 9.568 24.1646 9.59147 24.1844 9.62008L27.1965 13.6357L24.4462 15.699C24.3048 15.8052 24.2112 15.9632 24.1862 16.1382C24.1612 16.3133 24.2068 16.4912 24.3129 16.6327C24.5338 16.9271 24.9516 16.9866 25.2465 16.7659L27.9966 14.7026L31.0091 18.7182C31.057 18.7768 31.071 18.8558 31.0457 18.9269C31.0379 18.9512 31.0236 18.9728 31.0044 18.9896C30.9852 19.0063 30.9618 19.0175 30.9367 19.0219L17.7107 21.8344C17.6704 21.8407 17.6292 21.8356 17.5918 21.8195C17.5543 21.8035 17.5222 21.7773 17.4989 21.7438C17.4729 21.7124 17.4565 21.6742 17.4517 21.6337C17.4468 21.5932 17.4536 21.5522 17.4714 21.5155L23.8731 9.60454ZM16.4326 22.544C16.6065 22.7831 16.846 22.9665 17.1221 23.0721C17.3983 23.1776 17.6991 23.2007 17.9881 23.1385L22.2383 22.2346V25.8333H12.9051V20.4995H16.5034L16.2968 20.8841C16.1571 21.1444 16.0955 21.4396 16.1196 21.7341C16.1437 22.0286 16.2524 22.3098 16.4326 22.544ZM2.23819 23.1666H3.57156C3.65996 23.1679 3.74775 23.1517 3.82982 23.1188C3.91188 23.0859 3.98659 23.037 4.04958 22.975C4.11258 22.9129 4.16261 22.839 4.19675 22.7574C4.2309 22.6759 4.24848 22.5883 4.24848 22.4999C4.24848 22.4115 4.2309 22.324 4.19675 22.2424C4.16261 22.1608 4.11258 22.0869 4.04958 22.0249C3.98659 21.9628 3.91188 21.9139 3.82982 21.881C3.74775 21.8481 3.65996 21.8319 3.57156 21.8333H2.23819V20.4996H11.5718V25.8333H2.23811L2.23819 23.1666ZM7.57149 27.1667H16.905V32.5H7.57149V27.1667ZM2.23819 33.8333H11.5718V39.1667H2.23811L2.23819 33.8333Z" fill="#FFFFB9"/>
</svg>
